/* XPM */
static char *b19d2e42bc5a42b4c4e25d69c07cc175qkQiMDNPTXwVOCBf[] = {
/* columns rows colors chars-per-pixel */
"32 32 130 2 ",
"   c None",
".  c #6E5B68",
"X  c #705B69",
"o  c #5F7979",
"O  c #7B6672",
"+  c #637878",
"@  c #627979",
"#  c #637979",
"$  c #607C79",
"%  c #627E7A",
"&  c #865266",
"*  c #935B6E",
"=  c #8D4C70",
"-  c #8E4F72",
";  c #945170",
":  c #965371",
">  c #995673",
",  c #9A5773",
"<  c #A05E70",
"1  c #A45C70",
"2  c #A45C71",
"3  c #A55D71",
"4  c #A75F72",
"5  c #A05B74",
"6  c #A55F74",
"7  c #8F6473",
"8  c #926774",
"9  c #946A75",
"0  c #976D77",
"q  c #946F7D",
"w  c #A56075",
"e  c #A76174",
"r  c #A86275",
"t  c #AA6274",
"y  c #AB6374",
"u  c #AC6474",
"i  c #AC6475",
"p  c #AF6776",
"a  c #A5667C",
"s  c #A5667D",
"d  c #B06876",
"f  c #B26A78",
"g  c #B26B7A",
"h  c #B26C7B",
"j  c #B56D7A",
"k  c #B66E7A",
"l  c #B76F7B",
"z  c #B7707C",
"x  c #B8707B",
"c  c #B9717C",
"v  c #BD757E",
"b  c #BD767E",
"n  c #65857A",
"m  c #688B7B",
"M  c #6A887C",
"N  c #6A897C",
"B  c #6E8D7E",
"V  c #6D927C",
"C  c #70927E",
"Z  c #739A7E",
"A  c #A66F87",
"S  c #AD6E81",
"D  c #A6768E",
"F  c #A6768F",
"G  c #B47886",
"H  c #B77C88",
"J  c #B97E89",
"K  c #A97A91",
"L  c #AA7B91",
"P  c #C07981",
"I  c #C17A82",
"U  c #C37D84",
"Y  c #C47E85",
"T  c #719080",
"R  c #749385",
"E  c #799C81",
"W  c #7E9B89",
"Q  c #7CA382",
"!  c #7FA583",
"~  c #9B808A",
"^  c #9E838C",
"/  c #829793",
"(  c #869995",
")  c #869A96",
"_  c #899996",
"`  c #AA8A92",
"'  c #B78E9D",
"]  c #81A784",
"[  c #91A49E",
"{  c #96A8A1",
"}  c #9FB1A7",
"|  c #C58086",
" . c #C68187",
".. c #C78288",
"X. c #C88389",
"o. c #CF8D90",
"O. c #D08D91",
"+. c #D79898",
"@. c #C69EA4",
"#. c #C7ACB5",
"$. c #C7ADB5",
"%. c #CAAFB5",
"&. c #CCB4BA",
"*. c #CDB7BC",
"=. c #CFBABE",
"-. c #D1B3B5",
";. c #D2B4B5",
":. c #D3B6B6",
">. c #D2B6B7",
",. c #D3B6B7",
"<. c #D4B8B8",
"1. c #B5C1B9",
"2. c #CFC4C1",
"3. c #C2CCC3",
"4. c #C3CDC4",
"5. c #DBCECC",
"6. c #CBD3C9",
"7. c #E0CFCA",
"8. c #E6E0D9",
"9. c #E7E0D9",
"0. c #E3E7DB",
"q. c #E6E8DC",
"w. c #EBE9DE",
"e. c #E8EADE",
"r. c #EDE8DE",
"t. c #EFEDE1",
"y. c #ECEEE2",
"u. c #F1F1E5",
"i. c #F2F3E6",
"p. c #F3F4E7",
/* pixels */
"                                                                ",
"                                                                ",
"                                                                ",
"                                                                ",
"                                                                ",
"                                        0.0.0.0.t.p.            ",
"                            i.p.p.p.p.6.) / / / 4.p.            ",
"                            i.2.2.i.6.} T B M $ 1.p.            ",
"                            i.^ ~ q.[ M ! ] E $ 1.p.            ",
"                      p.p.p.i.^ O ) R V Z Q E n 1.p.            ",
"                    7.<.<.<.;.0 . o n M m V W { 4.              ",
"                  t.;.2 2 2 1 & . # # # # # _ e.                ",
"                r.@.J l l g k 1 * 8 9 0 0 8 ` r.                ",
"              7.;.H z ..H v v f y 2 p p p t G ;.7.              ",
"            p.-.2 l X.+.Y v v v l p p p p p u 2 -.p.            ",
"            p.-.2 x I  .P Y O.Y l p p p p p e ; %.p.            ",
"            p.-.2 l v v v Y o.U l p p p p p 6 = #.i.            ",
"            p.-.2 l v v v v v v x p p p p p 6 - #.i.            ",
"            p.%.; h v v v v v l g p p p d d 2 = #.p.            ",
"            p.=.L S h c c c c g p p p p d r s K *.i.            ",
"                9.F , d d d d p p p p p p > F 9.                ",
"                  <.' > e p p 5 5 p p y > ' =.                  ",
"                  p.=.F s 6 6 A A 6 2 s F =.p.                  ",
"                      9.K = - *.&.- - K 8.                      ",
"                        =.#.#.5.5.#.#.*.                        ",
"                        i.i.p.    p.p.p.                        ",
"                                                                ",
"                                                                ",
"                                                                ",
"                                                                ",
"                                                                ",
"                                                                "
};
