/* XPM */
static char *result[] = {
/* columns rows colors chars-per-pixel */
"32 32 9 1 ",
"  c #F8ECF3",
". c #90625D",
"X c #C58086",
"o c #F3F2C0",
"O c #754C60",
"+ c #D4C169",
"@ c #E8CFA6",
"# c #C49A6C",
"$ c #E4D8E6",
/* pixels */
"                                ",
"                                ",
"                                ",
"                                ",
"                                ",
"                                ",
"                                ",
"                                ",
"                                ",
"                                ",
"                                ",
"               ...              ",
"              .XXX.             ",
"             .ooooo.            ",
"            .ooOooOo.           ",
"            .oooo++o.           ",
"           .oooooooo.           ",
"          .ooooooooo.           ",
"          .@ooo#ooo@.           ",
"           .###@@@@.            ",
"           $.++.++.$            ",
"          $$$..$..$$$           ",
"           $$$$$$$$$            ",
"                                ",
"                                ",
"                                ",
"                                ",
"                                ",
"                                ",
"                                ",
"                                ",
"                                "
};
