/* XPM */
static char *result[] = {
/* columns rows colors chars-per-pixel */
"32 32 177 2 ",
"   c #F6ECF3",
".  c #F5E5E9",
"X  c #F2B2A1",
"o  c #EF8968",
"O  c #F6EBF1",
"+  c #F2A994",
"@  c #EF5D29",
"#  c #EF8966",
"$  c #F6EAF0",
"%  c #EF9D84",
"&  c #F05A25",
"*  c #F05922",
"=  c #F07C54",
"-  c #F6EBF2",
";  c #F2BFB4",
":  c #F05C27",
">  c #F06736",
",  c #F5E1E3",
"<  c #F6E5E9",
"1  c #EF7347",
"2  c #F05A23",
"3  c #F2B4A5",
"4  c #F3B9AB",
"5  c #F06838",
"6  c #F4D7D5",
"7  c #F19071",
"8  c #EF5821",
"9  c #EF5B22",
"0  c #F67C21",
"q  c #F15D21",
"w  c #EF835E",
"e  c #F5E1E4",
"r  c #F3D5D2",
"t  c #F5E6EB",
"y  c #EF7246",
"u  c #EF5C21",
"i  c #FA9120",
"p  c #F88820",
"a  c #F16322",
"s  c #F05A24",
"d  c #F1A088",
"f  c #F3D7D6",
"g  c #F5E2E5",
"h  c #ED7C55",
"j  c #F4DBDB",
"k  c #F06A3B",
"l  c #F36C22",
"z  c #FA931F",
"x  c #FB9320",
"c  c #F88C21",
"v  c #F15F22",
"b  c #F07347",
"n  c #EF987D",
"m  c #F0AD9B",
"M  c #F2B8AA",
"N  c #EF5A25",
"B  c #F5D9D8",
"V  c #F5DBDB",
"C  c #F15B23",
"Z  c #F88621",
"A  c #FA921F",
"S  c #F67A21",
"D  c #F0602C",
"F  c #F2C1B7",
"G  c #F3BDB1",
"H  c #EF8865",
"J  c #F08764",
"K  c #F0774B",
"L  c #F67F21",
"P  c #F98E20",
"I  c #F15E22",
"U  c #EF5C28",
"Y  c #F0774E",
"T  c #F2B3A3",
"R  c #F6E9EE",
"E  c #EF6F42",
"W  c #F16523",
"Q  c #F18965",
"!  c #F28B51",
"~  c #F99220",
"^  c #FA951F",
"/  c #FA981F",
"(  c #FA9220",
")  c #F26621",
"_  c #F05A22",
"`  c #F16223",
"'  c #EF5822",
"]  c #F09579",
"[  c #F6E2E5",
"{  c #F16839",
"}  c #F47422",
"|  c #F57822",
" . c #F57921",
".. c #F9AC20",
"X. c #F9CD21",
"o. c #F9991F",
"O. c #F36922",
"+. c #F16122",
"@. c #F78221",
"#. c #F07247",
"$. c #F6E8EE",
"%. c #F16838",
"&. c #F57622",
"*. c #FA9020",
"=. c #F88B20",
"-. c #F9961F",
";. c #F9C721",
":. c #FCEB23",
">. c #F9AE20",
",. c #FA911F",
"<. c #F36B21",
"1. c #F78120",
"2. c #F06636",
"3. c #F6E7EC",
"4. c #F06E41",
"5. c #F68321",
"6. c #F9B520",
"7. c #FDED23",
"8. c #FCE723",
"9. c #F9951E",
"0. c #F98B20",
"q. c #F26922",
"w. c #F06C3D",
"e. c #F08F70",
"r. c #F05923",
"t. c #F98F21",
"y. c #FA941F",
"u. c #FBDC22",
"i. c #FDEE23",
"p. c #F9D721",
"a. c #F9A821",
"s. c #F99E1F",
"d. c #F26C23",
"f. c #F18C6B",
"g. c #F4CEC9",
"h. c #F05E2B",
"j. c #F78922",
"k. c #FB9220",
"l. c #F9951F",
"z. c #FBE123",
"x. c #F9BE20",
"c. c #FAD222",
"v. c #FA9321",
"b. c #F16828",
"n. c #F3CCC5",
"m. c #F3B09E",
"M. c #F47628",
"N. c #FA9320",
"B. c #FAD323",
"V. c #FCE423",
"C. c #FCEB22",
"Z. c #FBE223",
"A. c #F78A26",
"S. c #F0AE9A",
"D. c #F3BDAF",
"F. c #F68C3A",
"G. c #F99122",
"H. c #F9AA21",
"J. c #FCEB24",
"K. c #FBDD24",
"L. c #F99520",
"P. c #F89838",
"I. c #F3C2AC",
"U. c #F5DFDF",
"Y. c #F4B58D",
"T. c #F89B3A",
"R. c #F8BC24",
"E. c #FDEB25",
"W. c #FDED25",
"Q. c #F7C132",
"!. c #F6BE88",
"~. c #F6E2DE",
"^. c #F6E3DB",
"/. c #F6E0C2",
"(. c #F7ECBB",
"). c #F6E9CE",
"_. c #F6EAED",
/* pixels */
"                                                                ",
"                                                                ",
"                                                                ",
"                                                                ",
"                                                                ",
"                                  .                             ",
"                                X o                             ",
"                            O + @ #                             ",
"                          $ % & * = -                           ",
"                          ; : * * > ,                           ",
"                        < 1 * * * 2 3                           ",
"                        4 2 2 2 * * 5 6                         ",
"                        7 8 9 0 q 8 * w e                       ",
"                  r   t y * u i p a * s d   $ f                 ",
"                g h   j k * l z x c v * b   n m                 ",
"                M N B V k C Z A A A S * D F s G                 ",
"                H * J . K L A A A A P I U Y * T                 ",
"              R E * W Q ! ~ A A ^ / ( ) _ ` ' ]                 ",
"              [ { * } |  .x z ..X.o.z O.+.@.* #.$.              ",
"              [ %.8 &.*.=.-.;.:.>.A ,.<.1.~ v 2.,               ",
"              3.4.* 5.A A 6.7.8.9.A ,.0.A ( q.w.<               ",
"                e.r.t.A y.u.i.p.A a.s.A A A d.f.                ",
"                g.h.j.k.l.z.i.8.o.x.c.z A v.b.n.                ",
"                O m.M.N.z B.i.i.V.C.Z.-.A A.S.O                 ",
"                    D.F.G.H.J.i.i.i.K.L.P.I.                    ",
"                      U.Y.T.R.E.i.W.Q.!.~.                      ",
"                          O ^./.(.)._.                          ",
"                                                                ",
"                                                                ",
"                                                                ",
"                                                                ",
"                                                                "
};
