/* XPM */
static char *_5278bdf10ec433dff849faa461f1ddcd3IS5D1YlvcswRQt[] = {
/* columns rows colors chars-per-pixel */
"32 32 89 1 ",
"  c #F8ECF3",
". c #D5BEC1",
"X c #A97F6C",
"o c #B3908F",
"O c #C39C7B",
"+ c #DCB98A",
"@ c #BBB179",
"# c #8DB05F",
"$ c #87AC5C",
"% c #99A969",
"& c #90B35E",
"* c #7DA559",
"= c #B7CE6C",
"- c #A4C263",
"; c #82A85A",
": c #90B260",
"> c #C0D470",
", c #9CBC61",
"< c #7FA65A",
"1 c #A5C265",
"2 c #95B75F",
"3 c #BBA672",
"4 c #81A85A",
"5 c #98B863",
"6 c #B0CA69",
"7 c #8AAE5D",
"8 c #ADC867",
"9 c #998C7E",
"0 c #90AD61",
"q c #86AC5B",
"w c #A2BF65",
"e c #C8C9C1",
"r c #A1A65E",
"t c #8D9759",
"y c #BF9673",
"u c #A18C5B",
"i c #B19761",
"p c #D3B28C",
"a c #EFDEB9",
"s c #929B5B",
"d c #A9AA63",
"f c #ECD6AF",
"g c #EBD6AF",
"h c #B4947C",
"j c #A18A5C",
"k c #E4C89D",
"l c #C49F8C",
"z c #90625D",
"x c #B8958E",
"c c #CAAFB0",
"v c #9E7160",
"b c #A17562",
"n c #B3845F",
"m c #9B7780",
"M c #C1966A",
"N c #C49A6C",
"B c #97767D",
"V c #A18191",
"C c #BB8F66",
"Z c #B08567",
"A c #7E535F",
"S c #AA8068",
"D c #8C6262",
"F c #986C60",
"G c #875B5E",
"H c #8F6664",
"J c #A1735D",
"K c #D4AF80",
"L c #A1715A",
"P c #9A7B8D",
"I c #815C6F",
"U c #8B6061",
"Y c #7C5360",
"T c #9F746B",
"R c #C2986B",
"E c #BF9469",
"W c #E4D8E6",
"Q c #8E6463",
"! c #AC898B",
"~ c #BB8F65",
"^ c #F4E8F0",
"/ c #B59CAC",
"( c #9F7C80",
") c #CCB7C2",
"_ c #E5D6E0",
"` c #F1E5EF",
"' c #EDE1EC",
"] c #F6EAF2",
"[ c #D6C2CA",
/* pixels */
"            ..XXXX..            ",
"          ooOO++++OOoo          ",
"      ..XX++@@#$$#@@++XX..      ",
"    ooOO++%%&*=--=*&%%++OOoo    ",
"   o++@@$;:>,<1221<,>:;$@@++o   ",
"   o3%456278,<=--=<,872654%3o   ",
"    90qw62:>,<1221<,>:26wq09    ",
"    e0qw6278,<=--=<,8726wq0e    ",
"    e0qw62:>rtyyyytr>:26wq0e    ",
"    e0qw62uippaaaappiu26wq0e    ",
"    e0sdyyffgg++++ggffyyds0e    ",
"    hjppaakk++XXXX++kkaappjh    ",
"   lffgg++OOzzzzzzzzOO++ggffl   ",
"   xkk++XXzzzzzzzzzzzzXX++kkx   ",
"   cOOvbnnnnnnnnnnnnnnnnbvOOc   ",
"    .mMNNNNNNNNNNNNNNNNNNMB.    ",
"     VnnnnnnnnnnnnnnnnnnnnV     ",
"     VNNNNNNNNNNNNNNNNNNNNV     ",
"     VCZAAZCCCSSSSCCCZAAZCV     ",
"     VCDzzDCCFGGGGFCCDzzDCV     ",
"     VNHbbHNSGzzzzGSNHbbHNV     ",
"     VnJKKJnvGzzzzGvnJKKJnV     ",
"     VNNNNNNSGzzzzGSNNNNNNV     ",
"     VNNNNNNSGLLLLGSNNNNNNV     ",
"      PIUYPPPTREERTPPPYUIP      ",
"      WPEQWWW!REER!WWWQEPW      ",
"      WPNHWWW!M~~M!WWWHNPW      ",
"      WPNHWWW!M~~M!WWWHNPW      ",
"      ^/S(WWW!REER!WWW(S/^      ",
"       ^)_``'!REER!'``_)^       ",
"            `!M~~M!`            ",
"            ][bbbb[]            "
};
