/* XPM */
static char *edbb1b01674141f2dfac0839a4ed84a55QsmZU5djlivGbCd[] = {
/* columns rows colors chars-per-pixel */
"32 32 56 1 ",
"  c black",
". c #78A158",
"X c #78A158",
"o c #78A158",
"O c #82A85A",
"+ c #87AC5C",
"@ c #7DA559",
"# c #78A158",
"$ c #95B75F",
"% c #9FBE62",
"& c #A4C263",
"* c #9ABB61",
"= c #78A158",
"- c #AAC666",
"; c #ADC867",
": c #C0D470",
"> c #BAD06D",
", c #B4CC6A",
"< c #78A158",
"1 c None",
"2 c #BDD26F",
"3 c #B0CA69",
"4 c #B7CE6C",
"5 c #8CB05D",
"6 c #A7C464",
"7 c #90B35E",
"8 c #90625D",
"9 c #8B835A",
"0 c #A7785E",
"q c #998659",
"w c #839858",
"e c #93935A",
"r c #A97C60",
"t c #BB8F65",
"y c #B2845F",
"u c #AE7E5C",
"i c #B98D64",
"p c #B1825E",
"a c #B68962",
"s c #B88B63",
"d c #C49A6C",
"f c #C1966A",
"g c #BF9469",
"h c #C2986B",
"j c #BC9166",
"k c #90625D",
"l c #AD7F61",
"z c #B68962",
"x c #BE9268",
"c c #B68962",
"v c #B89A65",
"b c #BEA16A",
"n c #C3A76D",
"m c #B68962",
"M c #BAAA68",
"N c #BA9C66",
/* pixels */
"  .XoOOooO++++oo@+oo+@oO++ooX.  ",
"  #o$%%$$%&&&&$$*&$$&*$%&&$$o#  ",
" =@*&-;;::>;;>:::,;;;;,:>;&&*@= ",
"<1*&-2::::::::::::::::::::3&&*1<",
"XO&&,,::>>::::,:,:::::22::::-&oX",
"X$&&::::::::::::::::::22::>>4&5X",
"Xo&&:::::::::::::::>::::::::4&$X",
"Xo&&::::::>>:::::::>::::,:::4&$X",
"X$&422::::::::::::::::::::::4&oX",
"X$&422::::::::::::::::::::::4&oX",
"X5&&:::::::::::::::::::::::::;oX",
"Xo&&:::::::::::::::::::::::::;oX",
"Xo&&:::>::::::::::::::::::>:4&OX",
"X5&3:::>::::::::::::::::::>:4&$X",
"X$&4::::::::::::::::::::::::>6$X",
"X$&4:::::::::::::::::::::::::;$X",
"X5;:,::::>::::::::22:::::::::;oX",
"Xo;::::::>::::::::22::::::>>:;oX",
"Xo&4::::::::>>::::::::::::::2-OX",
"X5&4::::::::::::,:::::::::::4&$X",
"XO&4:,::::::::::::::::::>>::4&$X",
"X$-2::::::::::::::::::::::::4&OX",
"X5&&>:44>::::>4442::::::::44&&oX",
"Xo7&6;&&6;;;;6&&&-;;;;>;;;&&&7oX",
"89o5*&$$$$&*$$$$&&$$&&&*$$$$5o98",
"80qw@+wqqw+@wqqq++qq+++eqqoowq08",
"8rtyuuytipuupiiauustuuuatsuupir8",
"8rdfggtdhgggjghgggtdggjgdfgighr8",
"klddddtdddddggddddtdddggdddtddlk",
" zxdddtdddddggddddtdddggdddtdxz ",
"  cjgivjgiigbjgiaaigndgaavgijc  ",
"  mcMMvaaaaaMvaMaaaMNtiMavMacm  "
};
